<svg preserveAspectRatio="none" width="100%" height="100%" overflow="visible" style="display: block;" viewBox="0 0 63.7199 66" fill="none" xmlns="http://www.w3.org/2000/svg">
<g id="Group 2">
<path id="Union" d="M31.958 0C46.7537 0.0001431 58.7477 9.30238 58.748 20.7773V34.3926L63.6084 44.1416C63.9823 44.8917 63.3613 45.75 62.5576 45.5947L58.748 44.8564V62C58.748 64.2091 56.9572 66 54.748 66H9.16696C6.958 65.9998 5.16696 64.209 5.16696 62V46.5166L1.16305 47.293C0.359234 47.4486 -0.26228 46.59 0.111295 45.8398L5.16696 35.6982V20.7773C5.16726 9.30238 17.1622 0.000143108 31.958 0Z" fill="var(--fill-0, white)"/>
<path id="Polygon 4" d="M32.373 36.2194C32.1749 36.5143 31.7411 36.5143 31.543 36.2194L28.6143 31.8602C28.3912 31.5281 28.6292 31.0814 29.0294 31.0814L34.8866 31.0814C35.2868 31.0814 35.5248 31.5281 35.3017 31.8602L32.373 36.2194Z" fill="var(--fill-0, #DFC22C)"/>
<ellipse id="Ellipse 5" cx="20.051" cy="29.1628" rx="1.48837" ry="3.06977" fill="var(--fill-0, #444444)"/>
<ellipse id="Ellipse 6" cx="43.865" cy="29.1628" rx="1.48837" ry="3.06977" fill="var(--fill-0, #444444)"/>
</g>
</svg>
